<?xml version="1.0" standalone="no"?>
<!DOCTYPE svg PUBLIC "-//W3C//DTD SVG 20010904//EN"
 "http://www.w3.org/TR/2001/REC-SVG-20010904/DTD/svg10.dtd">
<svg version="1.0" xmlns="http://www.w3.org/2000/svg"
 width="260.000000pt" height="260.000000pt" viewBox="0 0 260.000000 260.000000"
 preserveAspectRatio="xMidYMid meet">
<metadata>
Created by potrace 1.11, written by Peter Selinger 2001-2013
</metadata>
<g transform="translate(0.000000,260.000000) scale(0.100000,-0.100000)"
fill="#000000" stroke="none">
<path d="M277 2400 c-10 -4 -12 -239 -11 -1095 1 -600 2 -1095 3 -1100 1 -7
345 -10 1034 -10 l1032 0 2 1103 c1 1020 0 1102 -15 1103 -76 4 -2036 3 -2045
-1z m1901 -149 c9 -1 12 -199 12 -955 l0 -953 -889 0 -889 0 0 941 c-1 517 1
948 3 956 4 13 110 15 877 14 480 -1 879 -2 886 -3z"/>
<path d="M1201 1840 c-5 -3 -75 -189 -155 -415 -81 -225 -160 -445 -176 -487
l-28 -78 77 0 76 0 33 98 c19 53 53 154 78 225 24 70 64 187 89 260 25 72 51
145 57 161 l11 28 13 -33 c17 -45 254 -730 254 -735 0 -2 34 -4 76 -4 73 0 75
1 69 23 -4 12 -47 132 -95 267 -49 135 -121 335 -160 445 -98 273 -84 250
-153 251 -31 0 -61 -3 -66 -6z"/>
</g>
</svg>
